# xmcd CD database file
#
# Track frame offsets:
#	150
#	17920
#	30663
#	49515
#	65648
#	88150
#	111830
#	126960
#	143300
#	162495
#	184500
#	202325
#	222130
#	233070
#
# Disc length: 3298 seconds
#
# Revision: 0
# Processed by: cddbd v1.5.2PL0 Copyright (c) Steve Scherf et al.
# Submitted via: CDex 1.70beta3
#
DISCID=c50ce00e
DTITLE=Richard Galliano - Luz Negra
DYEAR=2007
DGENRE=Jazz
TTITLE0=Tangaria
TTITLE1=Luz Negra
TTITLE2=Guarda Che Luna
TTITLE3=Chat Pitre
TTITLE4=Fou Rire
TTITLE5=Gnossienne No.3
TTITLE6=Escualo
TTITLE7=Indifference
TTITLE8=Sanfona
TTITLE9=Des Voiliers
TTITLE10=Barbara
TTITLE11=Sertao
TTITLE12=Flambee Montalbanaise
TTITLE13=Les Forains
EXTD=YEAR: 2007
EXTT0=
EXTT1=
EXTT2=
EXTT3=
EXTT4=
EXTT5=
EXTT6=
EXTT7=
EXTT8=
EXTT9=
EXTT10=
EXTT11=
EXTT12=
EXTT13=
PLAYORDER=
